<?xml version="1.0" encoding="utf-8"?>

<!-- Generator: Adobe Illustrator 22.0.1, SVG Export Plug-In . SVG Version: 6.00 Build 0)  -->
<svg version="1.1" id="Layer_1" xmlns="http://www.w3.org/2000/svg" xmlns:xlink="http://www.w3.org/1999/xlink" x="0px" y="0px"
	 viewBox="0 0 200 200" style="enable-background:new 0 0 200 200;" xml:space="preserve">
<style type="text/css">
	.svg-none{display:#fff000;}
	.svg-fill-one{fill:#ffffff;}
	.svg-fill-two{fill:#333333;}
</style>
<g id="Layer_1_1_" class="svg-none">
</g>
<g id="Layer_2_1_">
	<g>
		<path class="svg-fill-one" d="M100,59.2c-1.3,0-2.6,1.4-3.3,3.6l-16.1,47.5l16,28.3c0.8,1.4,1.8,2.2,2.7,2.2l0,0c0.9,0,1.9-0.8,2.7-2.1
			l16.9-29.2l-15.5-46.7C102.7,60.6,101.3,59.2,100,59.2z"/>
		<path class="svg-fill-one" d="M50.2,80.8c-0.2,0-0.4,0-0.6,0.1c-1.8,0.6-4,3.7-3.2,8.5l7.4,44.2c0.6,3.3,2.3,4.9,3.6,5.1
			c1.4,0.1,2.7-1.3,3.4-3.6l8-23.6L52.8,83C51.9,81.5,51.1,80.8,50.2,80.8z"/>
		<path class="svg-fill-one" d="M150.5,80.1c-0.4-0.2-1.7-0.6-3.2,2l-16.6,28.6l8.1,24.3c0.8,2.3,2.1,3.7,3.5,3.6c1.4-0.1,3-1.7,3.6-5
			l7.9-45.1C154.5,83.8,152.3,80.7,150.5,80.1z"/>
		<path class="svg-fill-one" d="M100,4C47,4,4,47,4,100s43,96,96,96s96-43,96-96S153,4,100,4z M164.3,90.4l-7.9,45.1
			c-1.4,7.8-6.8,13.4-13.4,13.9c-6.4,0.5-12.1-3.8-14.5-11l-5-15.2l-12.1,20.9c-2.7,4.7-7.2,7.5-12,7.5c0,0,0,0-0.1,0
			c-4.9,0-9.4-2.9-12.1-7.7L76,124l-5,14.5c-2.4,7.1-8.1,11.4-14.5,10.9c-6.7-0.5-12.1-6.2-13.4-14l-7.4-44.2
			C33.9,80.7,39.5,73,45.9,70.7c6.2-2.2,12.6,0.5,16.2,7l11.3,20l13-38.4c2.3-6.7,7.5-10.9,13.6-10.9l0,0c6.1,0,11.3,4.2,13.6,11
			L126.1,97l11.8-20.4c3.7-6.4,10.1-9,16.2-6.8C160.6,72.2,166.1,80,164.3,90.4z"/>
	</g>
	<path class="svg-fill-two" d="M126.4,351.8C126.4,351.8,126.3,351.8,126.4,351.8c-5,0-9.5-2.9-12.2-7.7L102.8,324l-4.9,14.6
		c-2.4,7.2-8.2,11.5-14.7,11c-6.8-0.5-12.2-6.2-13.5-14.2l-7.5-44.6c-1.8-10.5,3.9-18.4,10.4-20.6c6.3-2.2,12.7,0.5,16.4,7.1
		l11.4,20.2l13.1-38.8c2.3-6.8,7.5-11,13.7-11l0,0c6.2,0,11.4,4.3,13.7,11.1l12.6,38l11.9-20.6c3.7-6.4,10.2-9.1,16.4-6.8
		c6.5,2.4,12,10.2,10.2,20.7l-8,45.5c-1.4,7.9-6.8,13.5-13.6,14c-6.5,0.5-12.3-3.9-14.6-11.1l-5.1-15.4l-12.2,21.1
		C135.8,348.9,131.3,351.8,126.4,351.8z M107.5,310.1l16.1,28.6c0.8,1.4,1.8,2.2,2.7,2.2l0,0c0.9,0,1.9-0.8,2.7-2.1l17.1-29.5
		l-15.6-47.1c-0.7-2.2-2.1-3.6-3.4-3.6c-1.3,0-2.6,1.4-3.4,3.6L107.5,310.1z M158.1,310.5l8.1,24.5c0.8,2.4,2.1,3.7,3.5,3.6
		s3-1.7,3.6-5l8-45.5c0.8-4.8-1.4-8-3.2-8.6c-0.4-0.2-1.7-0.6-3.2,2L158.1,310.5z M76.8,280.2c-0.2,0-0.4,0-0.6,0.1
		c-1.8,0.6-4,3.7-3.2,8.6l7.5,44.6c0.6,3.4,2.3,5,3.6,5.1c1.4,0.1,2.7-1.3,3.5-3.6l8.1-23.9l-16.2-28.7
		C78.6,281,77.7,280.2,76.8,280.2z"/>
</g>
</svg>
